<?xml version="1.0" encoding="UTF-8"?>
<svg version="1.1" xmlns="http://www.w3.org/2000/svg" width="256" height="256">
<path d="M0 0 C1.42187705 1.19894413 2.81616127 2.43106397 4.1875 3.6875 C5.09113281 4.51121094 5.99476563 5.33492187 6.92578125 6.18359375 C20.1563412 18.80544052 30.46489713 36.49156093 31.29736328 55.14990234 C31.35767841 57.93402833 31.37310173 60.71524376 31.375 63.5 C31.38724609 64.43392578 31.39949219 65.36785156 31.41210938 66.33007812 C31.45604389 87.43329129 21.91075941 106.87981285 7.1875 121.6875 C-8.71796517 136.62776607 -29.04552019 143.39471907 -50.66479492 143.15600586 C-72.10375084 142.44304935 -92.11051655 132.99424081 -107 117.5625 C-122.47797 99.77511861 -127.95595238 78.52435017 -127.0078125 55.38183594 C-126.23998668 44.78967878 -122.53093263 35.22451712 -117.69140625 25.87109375 C-116.50059659 21.55771655 -117.83957393 19.59681647 -119.8125 15.6875 C-120.51504709 9.36457617 -119.50720641 4.9162658 -115.8125 -0.3125 C-111.15899456 -5.29682336 -106.88013228 -8.06105473 -100 -8.625 C-96.80826282 -8.59533702 -94.91677044 -7.9276222 -92.125 -6.4375 C-89.14502748 -5.1934338 -88.08422881 -5.21692642 -84.98046875 -6.30859375 C-82.7818597 -7.39569884 -80.58954206 -8.49558461 -78.40234375 -9.60546875 C-53.17477962 -21.60160099 -22.01815853 -16.2981387 0 0 Z M-73.625 -1.375 C-74.67578735 -0.99589478 -74.67578735 -0.99589478 -75.74780273 -0.60913086 C-77.93112422 0.20625063 -77.93112422 0.20625063 -80.8125 1.6875 C-81.99594215 5.23782645 -81.51200861 7.33768863 -80.87109375 10.9453125 C-80.8125 13.6875 -80.8125 13.6875 -81.63085938 15.55297852 C-82.69996038 18.20491613 -83.0801522 19.81762921 -82.8125 22.6875 C-80.07646301 26.89563084 -76.76800287 30.27290851 -73.14892578 33.73022461 C-71.43891482 35.37364027 -69.792293 37.06591074 -68.14453125 38.77148438 C-67.07104383 39.83410937 -65.9943188 40.89347567 -64.9140625 41.94921875 C-64.42410797 42.45627853 -63.93415344 42.96333832 -63.42935181 43.48576355 C-61.80070901 45.09801471 -61.80070901 45.09801471 -58.8125 46.6875 C-56.57686024 46.52261938 -54.73251545 46.03564719 -52.61730957 45.30302429 C-48.74952012 43.98392758 -44.70998366 44.78506251 -40.8125 45.6875 C-35.45604985 48.46491859 -32.14000647 51.96927246 -29.5 57.375 C-28.26000179 63.34953685 -28.74651853 68.63167859 -31.5625 74.0625 C-35.41940226 78.5622193 -38.92961716 81.46652432 -44.8125 82.6875 C-51.18735747 82.78109497 -55.84644469 81.94411883 -60.8125 77.6875 C-64.64943492 73.5308205 -66.63455016 70.04533542 -67.0625 64.375 C-66.85542492 61.32064258 -66.47207554 59.61551047 -65.50073242 56.83837891 C-64.59360344 53.28226127 -64.66215899 52.94525605 -66.64575195 49.54443359 C-67.58619464 48.53162658 -68.55686572 47.54632409 -69.55078125 46.5859375 C-70.06497116 46.05980865 -70.57916107 45.53367981 -71.1089325 44.99160767 C-72.20062676 43.88875383 -73.30510281 42.79842549 -74.42114258 41.72021484 C-76.11999506 40.0673694 -77.75543756 38.36608289 -79.39257812 36.65234375 C-84.57390151 31.04563788 -84.57390151 31.04563788 -91.40161133 28.43994141 C-93.6747403 28.98751652 -95.66446436 29.77706356 -97.8125 30.6875 C-101.09765625 30.6640625 -101.09765625 30.6640625 -103.875 30.3125 C-104.81472656 30.20164063 -105.75445312 30.09078125 -106.72265625 29.9765625 C-107.41230469 29.88117188 -108.10195312 29.78578125 -108.8125 29.6875 C-117.87251912 45.86610558 -119.93853185 65.47141316 -115.1875 83.4375 C-108.35379612 103.12621326 -95.71428923 118.51071708 -76.8125 127.6875 C-67.10367221 131.52207904 -58.56034021 132.88671498 -48.1875 132.9375 C-47.15753906 132.958125 -46.12757813 132.97875 -45.06640625 133 C-37.85678675 133.03627482 -31.6501109 131.93987342 -24.8125 129.6875 C-23.52617676 129.26791016 -23.52617676 129.26791016 -22.21386719 128.83984375 C-5.54534129 123.14780316 7.03034983 109.87471895 15.1875 94.6875 C23.5147689 77.18406586 24.00415664 57.645927 18 39.375 C10.78544098 20.8443105 -2.94244674 7.37908689 -20.7890625 -1.0625 C-37.90682937 -8.13961292 -56.40881696 -7.63385792 -73.625 -1.375 Z M-107.8125 4.6875 C-110.29636059 8.41329089 -110.1929212 10.27461402 -109.8125 14.6875 C-108.54251681 17.54496217 -107.5286997 19.16887263 -105 21 C-100.99326442 22.25925975 -97.94864031 22.15228467 -94.0625 20.5625 C-91.13816271 18.12555226 -90.54095241 16.40260729 -89.8125 12.6875 C-89.96206268 8.94843301 -90.33534006 7.25701348 -92.75 4.375 C-97.80479068 0.23926217 -102.69100925 0.84638194 -107.8125 4.6875 Z M-55.8125 56.6875 C-58.14076375 59.90272137 -58.20961181 62.79580425 -57.8125 66.6875 C-56.53561154 69.49665461 -55.50150183 71.18856764 -53 73 C-48.95188379 74.27226509 -45.93262891 74.19664951 -42.0625 72.4375 C-39.64369625 70.5562082 -38.72458095 69.58957573 -37.8125 66.6875 C-37.31973463 62.05550553 -37.94224158 59.37783225 -40.8125 55.6875 C-45.79674831 52.07821674 -51.16236731 53.07073013 -55.8125 56.6875 Z " fill="#1D1D1D" transform="translate(175.8125,64.3125)"/>
</svg>
